<svg width="36" height="19" viewBox="0 0 36 19" fill="none" xmlns="http://www.w3.org/2000/svg">
<path d="M34.8597 13.4901C34.8597 14.2504 33.5368 15.185 32.4609 15.185H31.4813C31.4823 10.532 31.4823 5.31571 31.4813 4.38981C31.4808 4.3624 31.4883 4.3352 31.5033 4.30976C31.5182 4.28433 31.5403 4.26117 31.5683 4.24161C31.5963 4.22204 31.6297 4.20646 31.6665 4.19576C31.7033 4.18505 31.7428 4.17943 31.7828 4.17921H34.5568C34.7234 4.17921 34.8599 4.27507 34.8599 4.39147V13.4901H34.8597ZM30.3394 16.8177C30.3394 17.2989 29.996 18.1051 27.6956 18.1051C23.2376 18.1051 20.5009 15.7102 20.5009 13.9925C20.5009 13.9925 20.496 8.43857 20.496 4.39157C20.4955 4.36411 20.503 4.33686 20.5179 4.31139C20.5329 4.28592 20.5551 4.26273 20.5832 4.24316C20.6112 4.22358 20.6447 4.20801 20.6816 4.19734C20.7185 4.18666 20.7581 4.1811 20.7981 4.18096H23.5754C23.7422 4.18096 23.8791 4.27621 23.8791 4.39332V13.3172C23.8791 14.7916 25.5809 15.9875 27.6787 15.9875H30.3409L30.3394 16.8177ZM34.7673 3.37889H31.5718C30.8924 3.37889 30.3391 3.76801 30.3391 4.24535V15.1859H27.6768C26.2079 15.1859 25.0175 14.349 25.0175 13.3169V4.24535C25.0175 3.76687 24.4649 3.37848 23.7841 3.37848H20.5873C19.9065 3.37848 19.3541 3.76687 19.3531 4.24535C19.3514 8.20093 19.358 13.9927 19.358 13.9927C19.3585 17.0371 24.2138 18.9064 27.6947 18.9064C30.0296 18.9064 31.4798 18.1043 31.4798 16.8122V15.9873H32.4604C34.1806 15.9873 36.0001 14.704 36.0001 13.4901V4.24535C36.0017 3.76687 35.4493 3.37848 34.7675 3.37848V3.37889H34.7673ZM15.8816 14.9914C15.882 15.0188 15.8745 15.046 15.8595 15.0714C15.8445 15.0968 15.8224 15.12 15.7943 15.1395C15.7662 15.159 15.7328 15.1746 15.696 15.1852C15.6591 15.1959 15.6196 15.2014 15.5796 15.2016H12.8023C12.6333 15.2016 12.4979 15.1055 12.4986 14.9897V6.06578C12.4986 4.59144 10.7964 3.3955 8.69899 3.3955H6.03667V2.56515C6.03667 2.08492 6.38007 1.27769 8.68048 1.27769C13.1386 1.27769 15.876 3.67256 15.876 5.39032C15.876 5.39032 15.881 10.9712 15.881 14.9913H15.8816V14.9914ZM1.81793 15.2034C1.64894 15.2 1.51381 15.1066 1.51576 14.9908V5.89377C1.51576 5.13338 2.8388 4.19758 3.91429 4.19758H4.89482C4.89332 10.8607 4.89332 14.2702 4.89482 14.9903C4.89558 15.046 4.86417 15.0996 4.80746 15.1394C4.75074 15.1792 4.67334 15.2019 4.5922 15.2027H1.81838L1.81793 15.2034ZM17.0159 5.39042C17.0165 2.34578 12.1611 0.47644 8.68063 0.47644C6.34516 0.47644 4.89482 1.27841 4.89482 2.57062V3.3955H3.91474C2.19398 3.3955 0.374512 4.67884 0.374512 5.89284V15.1375C0.374512 15.616 0.926929 16.0044 1.60741 16.0044H4.80228C4.82214 16.0044 4.83914 16.0006 4.85901 16.0006C5.51195 15.9791 6.03502 15.602 6.03502 15.1375V4.19696H8.69778C10.166 4.19696 11.3571 5.03381 11.3571 6.06588V15.1376C11.3571 15.6161 11.9097 16.0045 12.59 16.0045H15.7874C16.4682 16.0045 17.0203 15.6171 17.0203 15.1376C17.0227 11.1082 17.0164 5.39021 17.0164 5.39021L17.0159 5.39042Z" fill="white"/>
</svg>
